_states
version=1
nRows=4
nColumns=199
inDegrees=yes

# SIMM Motion File Header:
name _states
datacolumns 199
datarows 4
otherdata 1
range 0.00000008 0.00000010
endheader
time	/jointset/ground_thorax/thorax_rot1/value	/jointset/ground_thorax/thorax_rot1/speed	/jointset/ground_thorax/thorax_rot2/value	/jointset/ground_thorax/thorax_rot2/speed	/jointset/ground_thorax/thorax_rot3/value	/jointset/ground_thorax/thorax_rot3/speed	/jointset/sternoclavicular/sternoclavicular_r2/value	/jointset/sternoclavicular/sternoclavicular_r2/speed	/jointset/sternoclavicular/sternoclavicular_r3/value	/jointset/sternoclavicular/sternoclavicular_r3/speed	/jointset/unrotscap/unrotscap_r3/value	/jointset/unrotscap/unrotscap_r3/speed	/jointset/unrotscap/unrotscap_r2/value	/jointset/unrotscap/unrotscap_r2/speed	/jointset/acromioclavicular/acromioclavicular_r2/value	/jointset/acromioclavicular/acromioclavicular_r2/speed	/jointset/acromioclavicular/acromioclavicular_r3/value	/jointset/acromioclavicular/acromioclavicular_r3/speed	/jointset/acromioclavicular/acromioclavicular_r1/value	/jointset/acromioclavicular/acromioclavicular_r1/speed	/jointset/unrothum/unrothum_r1/value	/jointset/unrothum/unrothum_r1/speed	/jointset/unrothum/unrothum_r3/value	/jointset/unrothum/unrothum_r3/speed	/jointset/unrothum/unrothum_r2/value	/jointset/unrothum/unrothum_r2/speed	/jointset/shoulder0/elv_angle/value	/jointset/shoulder0/elv_angle/speed	/jointset/shoulder1/shoulder_ab_ad/value	/jointset/shoulder1/shoulder_ab_ad/speed	/jointset/shoulder1/shoulder1_r2/value	/jointset/shoulder1/shoulder1_r2/speed	/jointset/shoulder2/shoulder_ext_int/value	/jointset/shoulder2/shoulder_ext_int/speed	/jointset/phys_joint/ra_sh_ad_ab/value	/jointset/phys_joint/ra_sh_ad_ab/speed	/jointset/phys_joint/ra_sh_e_f/value	/jointset/phys_joint/ra_sh_e_f/speed	/jointset/phys_joint/ra_sh_ext_int/value	/jointset/phys_joint/ra_sh_ext_int/speed	/jointset/RA1H_RA2U/elbow_flexion/value	/jointset/RA1H_RA2U/elbow_flexion/speed	/jointset/RA1H_RA2U/ra_el_e_f/value	/jointset/RA1H_RA2U/ra_el_e_f/speed	/jointset/RA2U_RA2R/ra_wr_s_p/value	/jointset/RA2U_RA2R/ra_wr_s_p/speed	/jointset/RA2R_RA3M/ra_wr_e_f/value	/jointset/RA2R_RA3M/ra_wr_e_f/speed	/jointset/RA2R_RA3M/ra_wr_ad_ab/value	/jointset/RA2R_RA3M/ra_wr_ad_ab/speed	/jointset/RA3M_RA4P1/ra_cmc1_ad_ab/value	/jointset/RA3M_RA4P1/ra_cmc1_ad_ab/speed	/jointset/RA3M_RA4P1/ra_cmc1_f_e/value	/jointset/RA3M_RA4P1/ra_cmc1_f_e/speed	/jointset/RA4P1_RA5C1/ra_mcp1_f_e/value	/jointset/RA4P1_RA5C1/ra_mcp1_f_e/speed	/jointset/RA5C1_RA6D1/ra_ip1_f_e/value	/jointset/RA5C1_RA6D1/ra_ip1_f_e/speed	/jointset/RA3M_RA4P2/ra_mcp2_e_f/value	/jointset/RA3M_RA4P2/ra_mcp2_e_f/speed	/jointset/RA3M_RA4P2/ra_mcp2_ab_ad/value	/jointset/RA3M_RA4P2/ra_mcp2_ab_ad/speed	/jointset/RA4P2_RA5C2/ra_pip2_e_f/value	/jointset/RA4P2_RA5C2/ra_pip2_e_f/speed	/jointset/RA5C2_RA6D2/ra_dip2_e_f/value	/jointset/RA5C2_RA6D2/ra_dip2_e_f/speed	/jointset/RA3M_RA4P3/ra_mcp3_e_f/value	/jointset/RA3M_RA4P3/ra_mcp3_e_f/speed	/jointset/RA3M_RA4P3/ra_mcp3_ab_ad/value	/jointset/RA3M_RA4P3/ra_mcp3_ab_ad/speed	/jointset/RA4P3_RA5C3/ra_pip3_e_f/value	/jointset/RA4P3_RA5C3/ra_pip3_e_f/speed	/jointset/RA5C3_RA6D3/ra_dip3_e_f/value	/jointset/RA5C3_RA6D3/ra_dip3_e_f/speed	/jointset/RA3M_RA4P4/ra_mcp4_e_f/value	/jointset/RA3M_RA4P4/ra_mcp4_e_f/speed	/jointset/RA3M_RA4P4/ra_mcp4_ab_ad/value	/jointset/RA3M_RA4P4/ra_mcp4_ab_ad/speed	/jointset/RA4P4_RA5C4/ra_pip4_e_f/value	/jointset/RA4P4_RA5C4/ra_pip4_e_f/speed	/jointset/RA5C4_RA6D4/ra_dip4_e_f/value	/jointset/RA5C4_RA6D4/ra_dip4_e_f/speed	/jointset/RA3M_RA4P5/ra_mcp5_e_f/value	/jointset/RA3M_RA4P5/ra_mcp5_e_f/speed	/jointset/RA3M_RA4P5/ra_mcp5_ab_ad/value	/jointset/RA3M_RA4P5/ra_mcp5_ab_ad/speed	/jointset/RA4P5_RA5C5/ra_pip5_e_f/value	/jointset/RA4P5_RA5C5/ra_pip5_e_f/speed	/jointset/RA5C5_RA6D5/ra_dip5_e_f/value	/jointset/RA5C5_RA6D5/ra_dip5_e_f/speed	/forceset/DELT_A/activation	/forceset/DELT_A/fiber_length	/forceset/DELT_LAT/activation	/forceset/DELT_LAT/fiber_length	/forceset/DELT_P/activation	/forceset/DELT_P/fiber_length	/forceset/SUPSP/activation	/forceset/SUPSP/fiber_length	/forceset/INFSP/activation	/forceset/INFSP/fiber_length	/forceset/SUBSC/activation	/forceset/SUBSC/fiber_length	/forceset/TERMI/activation	/forceset/TERMI/fiber_length	/forceset/TERMA/activation	/forceset/TERMA/fiber_length	/forceset/PECM_R/activation	/forceset/PECM_R/fiber_length	/forceset/PECM_M/activation	/forceset/PECM_M/fiber_length	/forceset/PECM_C/activation	/forceset/PECM_C/fiber_length	/forceset/LATD_R/activation	/forceset/LATD_R/fiber_length	/forceset/LATD_M/activation	/forceset/LATD_M/fiber_length	/forceset/LATD_C/activation	/forceset/LATD_C/fiber_length	/forceset/CORBR/activation	/forceset/CORBR/fiber_length	/forceset/TRI_LO/activation	/forceset/TRI_LO/fiber_length	/forceset/TRI_LAT/activation	/forceset/TRI_LAT/fiber_length	/forceset/TRI_M/activation	/forceset/TRI_M/fiber_length	/forceset/ANC/activation	/forceset/ANC/fiber_length	/forceset/SUP/activation	/forceset/SUP/fiber_length	/forceset/BIC_LO/activation	/forceset/BIC_LO/fiber_length	/forceset/BIC_SH/activation	/forceset/BIC_SH/fiber_length	/forceset/BR/activation	/forceset/BR/fiber_length	/forceset/BRR/activation	/forceset/BRR/fiber_length	/forceset/ECR_LO/activation	/forceset/ECR_LO/fiber_length	/forceset/ECR_BR/activation	/forceset/ECR_BR/fiber_length	/forceset/ECU/activation	/forceset/ECU/fiber_length	/forceset/FCR/activation	/forceset/FCR/fiber_length	/forceset/FCU/activation	/forceset/FCU/fiber_length	/forceset/PL/activation	/forceset/PL/fiber_length	/forceset/PT/activation	/forceset/PT/fiber_length	/forceset/PQ/activation	/forceset/PQ/fiber_length	/forceset/FDS5/activation	/forceset/FDS5/fiber_length	/forceset/FDS4/activation	/forceset/FDS4/fiber_length	/forceset/FDS3/activation	/forceset/FDS3/fiber_length	/forceset/FDS2/activation	/forceset/FDS2/fiber_length	/forceset/FDP5/activation	/forceset/FDP5/fiber_length	/forceset/FDP4/activation	/forceset/FDP4/fiber_length	/forceset/FDP3/activation	/forceset/FDP3/fiber_length	/forceset/FDP2/activation	/forceset/FDP2/fiber_length	/forceset/ED5/activation	/forceset/ED5/fiber_length	/forceset/ED4/activation	/forceset/ED4/fiber_length	/forceset/ED3/activation	/forceset/ED3/fiber_length	/forceset/ED2/activation	/forceset/ED2/fiber_length	/forceset/EDM/activation	/forceset/EDM/fiber_length	/forceset/EIND/activation	/forceset/EIND/fiber_length	/forceset/EPL/activation	/forceset/EPL/fiber_length	/forceset/EPB/activation	/forceset/EPB/fiber_length	/forceset/FPL/activation	/forceset/FPL/fiber_length	/forceset/FPB/activation	/forceset/FPB/fiber_length	/forceset/OP/activation	/forceset/OP/fiber_length	/forceset/APL/activation	/forceset/APL/fiber_length	/forceset/APB/activation	/forceset/APB/fiber_length	/forceset/ADPT/activation	/forceset/ADPT/fiber_length
      0.00000008	     -0.00000000	     -0.00182783	     -0.00000000	     -0.02308921	      0.00000000	      0.05572779	     -0.00000006	     -1.58829758	      0.00000006	      1.53043794	     -0.00000006	     -1.47521053	      0.00000006	      1.61002078	     -0.00000009	     -2.30883881	      0.00000006	      1.44826228	      0.00000024	      5.90036472	     -0.00000023	     -5.89269757	     -0.00000005	     -1.44061807	      0.00000009	      2.30716483	      0.00000000	      0.00000000	     -0.00000000	      0.00000000	     -0.00000000	     -0.00000000	     -0.00000000	     -0.10164440	     -0.00000002	     -0.42092237	     -0.00000000	      0.09102858	      0.00000003	      0.86466867	     -0.00000190	    -18.83733362	     90.00000071	     17.71842798	     -9.25200006	     -1.39045410	     -0.00000000	     -0.12128173	      0.00000007	      1.77753184	     20.00000005	     -0.03584112	     22.91831180	     -0.08483041	    -15.88200036	     -0.25363994	     -0.05087524	     -0.58763023	      0.01691023	      0.26908252	     -0.00000004	     -1.10210614	      0.00880791	      0.10485309	      0.03736628	     -0.47603111	      0.02613917	      0.33882959	     -0.00000004	     -1.09273293	      0.01852222	     -0.46331027	      0.00884278	      1.84958086	      0.00884325	      0.31011110	     -0.00000004	     -1.03718501	      0.00880841	     -0.22339487	      0.00884324	      0.09394611	      0.00884324	      0.21785733	     -0.00000004	     -0.93356169	      0.00880842	      0.01038980	      0.00884323	     -0.08412859	      0.04999994	      0.10000324	      0.04999994	      0.09999998	      0.04999994	      0.10002445	      0.04999994	      0.09999979	      0.04999994	      0.09999991	      0.04999994	      0.10000137	      0.04999994	      0.09999989	      0.04999994	      0.10005238	      0.04999994	      0.10033379	      0.04999994	      0.09999998	      0.04999994	      0.09999998	      0.04999994	      0.11294979	      0.04999994	      0.10322782	      0.04999994	      0.12393261	      0.04999994	      0.09999998	      0.04999994	      0.10001556	      0.04999994	      0.10000088	      0.04999994	      0.09999998	      0.04999994	      0.09999855	      0.04999994	      0.09999873	      0.04999994	      0.10000016	      0.04999994	      0.10000036	      0.04999994	      0.09999998	      0.04999994	      0.10001235	      0.04999994	      0.09999995	      0.04999994	      0.10000015	      0.04999994	      0.09999965	      0.04999994	      0.09999965	      0.04999994	      0.09999928	      0.04999994	      0.09999968	      0.04999994	      0.09999923	      0.04999994	      0.09999858	      0.04999994	      0.09999930	      0.04999994	      0.09999988	      0.04999994	      0.09999990	      0.04999994	      0.10000005	      0.04999994	      0.09999990	      0.04999994	      0.10000003	      0.04999994	      0.10000012	      0.04999994	      0.09999990	      0.04999994	      0.09999971	      0.04999994	      0.09999964	      0.04999994	      0.09999987	      0.04999994	      0.09999982	      0.04999994	      0.09999977	      0.04999994	      0.09999953	      0.04999994	      0.09999938	      0.04999994	      0.09999977	      0.04999994	      0.09999942	      0.04999994	      0.09999942	      0.04999994	      0.09999942	      0.04999994	      0.09999985	      0.04999994	      0.09999942	      0.04999994	      0.09999942
      0.00000009	     -0.00000000	     -0.00205549	     -0.00000000	     -0.02595341	      0.00000000	      0.06264668	     -0.00000008	     -1.78595767	      0.00000008	      1.72056831	     -0.00000007	     -1.65848421	      0.00000008	      1.81037537	     -0.00000012	     -2.59646338	      0.00000007	      1.62909986	      0.00000030	      6.63424358	     -0.00000030	     -6.62562427	     -0.00000007	     -1.62050634	      0.00000012	      2.59458152	      0.00000000	      0.00000000	     -0.00000000	      0.00000000	     -0.00000000	     -0.00000000	     -0.00000000	     -0.11289289	     -0.00000003	     -0.47323070	     -0.00000000	      0.10224120	      0.00000004	      0.97027190	     -0.00000210	    -21.16332191	     90.00000090	     19.90567867	     -9.25200007	     -1.56244886	     -0.00000001	     -0.13670073	      0.00000009	      1.99820820	     20.00000005	     -0.04019232	     22.91831180	     -0.09531371	    -15.88200036	     -0.28521173	     -0.05087524	     -0.66056056	      0.01691023	      0.30291291	     -0.00000006	     -1.23897062	      0.00880791	      0.11788291	      0.03736628	     -0.53550416	      0.02613917	      0.38141507	     -0.00000006	     -1.22843180	      0.01852221	     -0.52134848	      0.00884280	      2.08083006	      0.00884325	      0.34912729	     -0.00000005	     -1.16598737	      0.00880840	     -0.25147927	      0.00884324	      0.10575617	      0.00884325	      0.24542553	     -0.00000005	     -1.04949813	      0.00880842	      0.01131726	      0.00884323	     -0.09442905	      0.04999994	      0.10000365	      0.04999994	      0.09999998	      0.04999994	      0.10002751	      0.04999994	      0.09999976	      0.04999994	      0.09999990	      0.04999994	      0.10000154	      0.04999994	      0.09999988	      0.04999994	      0.10005892	      0.04999994	      0.10037516	      0.04999994	      0.09999998	      0.04999994	      0.09999998	      0.04999994	      0.11296816	      0.04999994	      0.10323019	      0.04999994	      0.12394174	      0.04999994	      0.09999998	      0.04999994	      0.10001750	      0.04999994	      0.10000099	      0.04999994	      0.09999998	      0.04999994	      0.09999837	      0.04999994	      0.09999857	      0.04999994	      0.10000018	      0.04999994	      0.10000041	      0.04999994	      0.09999998	      0.04999994	      0.10001389	      0.04999994	      0.09999995	      0.04999994	      0.10000017	      0.04999994	      0.09999960	      0.04999994	      0.09999961	      0.04999994	      0.09999920	      0.04999994	      0.09999964	      0.04999994	      0.09999914	      0.04999994	      0.09999841	      0.04999994	      0.09999922	      0.04999994	      0.09999987	      0.04999994	      0.09999989	      0.04999994	      0.10000005	      0.04999994	      0.09999989	      0.04999994	      0.10000003	      0.04999994	      0.10000013	      0.04999994	      0.09999989	      0.04999994	      0.09999968	      0.04999994	      0.09999960	      0.04999994	      0.09999985	      0.04999994	      0.09999980	      0.04999994	      0.09999975	      0.04999994	      0.09999947	      0.04999994	      0.09999930	      0.04999994	      0.09999975	      0.04999994	      0.09999934	      0.04999994	      0.09999934	      0.04999994	      0.09999934	      0.04999994	      0.09999983	      0.04999994	      0.09999934	      0.04999994	      0.09999934
      0.00000010	     -0.00000000	     -0.00228297	     -0.00000000	     -0.02881275	      0.00000000	      0.06955517	     -0.00000010	     -1.98342418	      0.00000010	      1.91043941	     -0.00000009	     -1.84150894	      0.00000010	      2.01053179	     -0.00000014	     -2.88387181	      0.00000009	      1.80989440	      0.00000037	      7.36731305	     -0.00000037	     -7.35774295	     -0.00000009	     -1.80035294	      0.00000014	      2.88178236	      0.00000000	      0.00000000	     -0.00000000	      0.00000000	     -0.00000000	     -0.00000000	     -0.00000001	     -0.12452683	     -0.00000003	     -0.52546789	     -0.00000000	      0.11344719	      0.00000005	      1.07603402	     -0.00000233	    -23.48297899	     90.00000111	     22.08684664	     -9.25200009	     -1.73404358	     -0.00000001	     -0.15217685	      0.00000011	      2.21855003	     20.00000005	     -0.04451508	     22.91831180	     -0.10577038	    -15.88200037	     -0.31675412	     -0.05087525	     -0.73337532	      0.01691024	      0.33678631	     -0.00000007	     -1.37563666	      0.00880791	      0.13089580	      0.03736627	     -0.59497041	      0.02613917	      0.42405167	     -0.00000007	     -1.36393355	      0.01852221	     -0.57941414	      0.00884282	      2.31209064	      0.00884325	      0.38819916	     -0.00000006	     -1.29460298	      0.00880840	     -0.27959901	      0.00884324	      0.11758096	      0.00884325	      0.27306789	     -0.00000006	     -1.16526703	      0.00880842	      0.01216274	      0.00884323	     -0.10468191	      0.04999993	      0.10000405	      0.04999993	      0.09999998	      0.04999993	      0.10003056	      0.04999993	      0.09999974	      0.04999993	      0.09999988	      0.04999993	      0.10000171	      0.04999993	      0.09999986	      0.04999993	      0.10006545	      0.04999993	      0.10041646	      0.04999993	      0.09999997	      0.04999993	      0.09999997	      0.04999993	      0.11298649	      0.04999993	      0.10323256	      0.04999993	      0.12395086	      0.04999993	      0.09999997	      0.04999993	      0.10001945	      0.04999993	      0.10000110	      0.04999993	      0.09999998	      0.04999993	      0.09999818	      0.04999993	      0.09999842	      0.04999993	      0.10000020	      0.04999993	      0.10000045	      0.04999993	      0.09999998	      0.04999993	      0.10001544	      0.04999993	      0.09999994	      0.04999993	      0.10000019	      0.04999993	      0.09999956	      0.04999993	      0.09999956	      0.04999993	      0.09999911	      0.04999993	      0.09999960	      0.04999993	      0.09999904	      0.04999993	      0.09999823	      0.04999993	      0.09999913	      0.04999993	      0.09999985	      0.04999993	      0.09999987	      0.04999993	      0.10000006	      0.04999993	      0.09999987	      0.04999993	      0.10000003	      0.04999993	      0.10000015	      0.04999993	      0.09999987	      0.04999993	      0.09999964	      0.04999993	      0.09999956	      0.04999993	      0.09999983	      0.04999993	      0.09999978	      0.04999993	      0.09999972	      0.04999993	      0.09999941	      0.04999993	      0.09999923	      0.04999993	      0.09999972	      0.04999993	      0.09999927	      0.04999993	      0.09999927	      0.04999993	      0.09999927	      0.04999993	      0.09999981	      0.04999993	      0.09999927	      0.04999993	      0.09999927
      0.00000010	             nan	             nan	             nan	             nan	             nan	             nan	             nan	             nan	             nan	             nan	             nan	             nan	             nan	             nan	             nan	             nan	             nan	             nan	             nan	             nan	             nan	             nan	             nan	             nan	             nan	             nan	             nan	             nan	             nan	             nan	             nan	             nan	             nan	             nan	             nan	             nan	             nan	             nan	             nan	             nan	             nan	             nan	             nan	             nan	             nan	             nan	             nan	             nan	             nan	             nan	             nan	             nan	             nan	             nan	             nan	             nan	             nan	             nan	             nan	             nan	             nan	             nan	             nan	             nan	             nan	             nan	             nan	             nan	             nan	             nan	             nan	             nan	             nan	             nan	             nan	             nan	             nan	             nan	             nan	             nan	             nan	             nan	             nan	             nan	             nan	             nan	             nan	             nan	             nan	             nan	      0.04999992	             nan	      0.04999992	             nan	      0.04999992	             nan	      0.04999992	             nan	      0.04999992	             nan	      0.04999992	             nan	      0.04999992	             nan	      0.04999992	             nan	      0.04999992	             nan	      0.04999992	             nan	      0.04999992	             nan	      0.04999992	             nan	      0.04999992	             nan	      0.04999992	             nan	      0.04999992	             nan	      0.04999992	             nan	      0.04999992	             nan	      0.04999992	             nan	      0.04999992	             nan	      0.04999992	             nan	      0.04999992	             nan	      0.04999992	             nan	      0.04999992	             nan	      0.04999992	             nan	      0.04999992	             nan	      0.04999992	             nan	      0.04999992	             nan	      0.04999992	             nan	      0.04999992	             nan	      0.04999992	             nan	      0.04999992	             nan	      0.04999992	             nan	      0.04999992	             nan	      0.04999992	             nan	      0.04999992	             nan	      0.04999992	             nan	      0.04999992	             nan	      0.04999992	             nan	      0.04999992	             nan	      0.04999992	             nan	      0.04999992	             nan	      0.04999992	             nan	      0.04999992	             nan	      0.04999992	             nan	      0.04999992	             nan	      0.04999992	             nan	      0.04999992	             nan	      0.04999992	             nan	      0.04999992	             nan	      0.04999992	             nan	      0.04999992	             nan	      0.04999992	             nan	      0.04999992	             nan	      0.04999992	             nan
